# xmcd
#
# Track frame offsets:
#	150
#	14820
#	26450
#	38822
#	50255
#	61945
#	74242
#	87645
#	104582
#	117347
#	132802
#	140700
#	150672
#	164860
#	178197
#	187332
#	201742
#	214345
#	223552
#	233787
#
# Disc length: 3316 seconds
#
# Revision: 8
# Processed by: cddbd v1.5.2PL0 Copyright (c) Steve Scherf et al.
# Submitted via: EasyCDDAExtractor 16.0.6.1
#
DISCID=4a0cf214
DTITLE=Various Artist - Country Gold Vol. 2
DYEAR=1995
DGENRE=Country
TTITLE0=Bellamy Brothers - Dancing Cowboys
TTITLE1=Frankie Lane - Mule Train
TTITLE2=Lynn Anderson - Stand By Your Man
TTITLE3=Johnny Cash - Big River
TTITLE4=Kenny Rogers - Me And Bobby Mc Ghee
TTITLE5=Frankie Lane - High Noon (Do Not Forsake Me)
TTITLE6=Bellamy Brothers - Do You Love As Good As You Look
TTITLE7=Carmen and Thompson - Indian Queens
TTITLE8=Lynn Anderson - Top Of The World
TTITLE9=Kenny Rogers - For The Good Times
TTITLE10=Johnny Cash - Hey Good Looking
TTITLE11=Willie Nelson - Broken Promises
TTITLE12=B.J. Thomas - I'd Rather Be Lonely
TTITLE13=Carl Belew - Welcome Back To My World
TTITLE14=Dorsey Burnette - Together Again
TTITLE15=Waylon Jennings - Dream Baby [Instrumental]
TTITLE16=Oak Ridge Boys - You'll Never Walk Alone
TTITLE17=Marylin Monroe - One Silver Dollar
TTITLE18=Don Williams - Take My Hand For A While
TTITLE19=Willie Nelson - Face Of A Fighter
EXTD=
EXTT0=
EXTT1=
EXTT2=
EXTT3=
EXTT4=
EXTT5=
EXTT6=
EXTT7=
EXTT8=
EXTT9=
EXTT10=
EXTT11=
EXTT12=
EXTT13=
EXTT14=
EXTT15=
EXTT16=
EXTT17=
EXTT18=
EXTT19=
PLAYORDER=
